<mxfile host="app.diagrams.net" agent="Mozilla/5.0 (Windows NT 10.0; Win64; x64) AppleWebKit/537.36 (KHTML, like Gecko) Chrome/140.0.0.0 Safari/537.36" version="28.2.0">
  <diagram name="Page-1" id="4uSXFJPOpak9Wi70Myzw">
    <mxGraphModel dx="1938" dy="1882" grid="0" gridSize="10" guides="1" tooltips="1" connect="1" arrows="1" fold="1" page="0" pageScale="1" pageWidth="850" pageHeight="1100" math="0" shadow="0">
      <root>
        <mxCell id="0" />
        <mxCell id="1" parent="0" />
        <mxCell id="3z-ovZjEJ0D5grw7G7I1-1" value="AI/Computation Server 1" style="verticalAlign=top;align=left;shape=cube;size=10;direction=south;fontStyle=0;html=1;boundedLbl=1;spacingLeft=5;whiteSpace=wrap;" vertex="1" parent="1">
          <mxGeometry x="-306" y="-117" width="215" height="207" as="geometry" />
        </mxCell>
        <mxCell id="3z-ovZjEJ0D5grw7G7I1-5" value="Model Services(CNN, DenseNet, MobileNet)" style="rounded=0;whiteSpace=wrap;html=1;" vertex="1" parent="1">
          <mxGeometry x="-297" y="-67" width="190" height="60" as="geometry" />
        </mxCell>
        <mxCell id="3z-ovZjEJ0D5grw7G7I1-6" value="preprocess service" style="rounded=0;whiteSpace=wrap;html=1;" vertex="1" parent="1">
          <mxGeometry x="-263" y="19" width="122" height="38" as="geometry" />
        </mxCell>
        <mxCell id="3z-ovZjEJ0D5grw7G7I1-7" value="AI/Computation Server 2" style="verticalAlign=top;align=left;shape=cube;size=10;direction=south;fontStyle=0;html=1;boundedLbl=1;spacingLeft=5;whiteSpace=wrap;" vertex="1" parent="1">
          <mxGeometry x="-44" y="-204" width="177" height="123" as="geometry" />
        </mxCell>
        <mxCell id="3z-ovZjEJ0D5grw7G7I1-9" value="Preprocess + Model" style="rounded=0;whiteSpace=wrap;html=1;" vertex="1" parent="1">
          <mxGeometry x="-21" y="-150" width="122" height="38" as="geometry" />
        </mxCell>
        <mxCell id="3z-ovZjEJ0D5grw7G7I1-11" value="Database Server" style="verticalAlign=top;align=left;shape=cube;size=10;direction=south;fontStyle=0;html=1;boundedLbl=1;spacingLeft=5;whiteSpace=wrap;" vertex="1" parent="1">
          <mxGeometry x="257" y="-215" width="177" height="123" as="geometry" />
        </mxCell>
        <mxCell id="3z-ovZjEJ0D5grw7G7I1-12" value="MySQL" style="rounded=0;whiteSpace=wrap;html=1;" vertex="1" parent="1">
          <mxGeometry x="283" y="-161" width="122" height="38" as="geometry" />
        </mxCell>
        <mxCell id="3z-ovZjEJ0D5grw7G7I1-15" value="Web Server (Nginx + API)" style="verticalAlign=top;align=left;shape=cube;size=10;direction=south;fontStyle=0;html=1;boundedLbl=1;spacingLeft=5;whiteSpace=wrap;" vertex="1" parent="1">
          <mxGeometry x="99" y="-18" width="359" height="207" as="geometry" />
        </mxCell>
        <mxCell id="3z-ovZjEJ0D5grw7G7I1-16" value="Werkzeug Auth" style="rounded=0;whiteSpace=wrap;html=1;" vertex="1" parent="1">
          <mxGeometry x="119" y="32" width="127" height="40" as="geometry" />
        </mxCell>
        <mxCell id="3z-ovZjEJ0D5grw7G7I1-19" value="API Layer" style="rounded=0;whiteSpace=wrap;html=1;" vertex="1" parent="1">
          <mxGeometry x="119" y="105" width="127" height="40" as="geometry" />
        </mxCell>
        <mxCell id="3z-ovZjEJ0D5grw7G7I1-20" value="Upload Handler" style="rounded=0;whiteSpace=wrap;html=1;" vertex="1" parent="1">
          <mxGeometry x="309" y="105" width="127" height="40" as="geometry" />
        </mxCell>
        <mxCell id="3z-ovZjEJ0D5grw7G7I1-21" value="SQL(Store/ fetch)" style="text;html=1;align=center;verticalAlign=middle;whiteSpace=wrap;rounded=0;" vertex="1" parent="1">
          <mxGeometry x="214" y="153" width="127" height="30" as="geometry" />
        </mxCell>
        <mxCell id="3z-ovZjEJ0D5grw7G7I1-22" value="" style="endArrow=classic;html=1;rounded=0;fontSize=12;startSize=8;endSize=8;curved=1;" edge="1" parent="1">
          <mxGeometry width="50" height="50" relative="1" as="geometry">
            <mxPoint x="277" y="-22" as="sourcePoint" />
            <mxPoint x="277" y="-88" as="targetPoint" />
          </mxGeometry>
        </mxCell>
        <mxCell id="3z-ovZjEJ0D5grw7G7I1-23" value="" style="endArrow=classic;html=1;rounded=0;fontSize=12;startSize=8;endSize=8;curved=1;" edge="1" parent="1">
          <mxGeometry width="50" height="50" relative="1" as="geometry">
            <mxPoint x="114" y="-77" as="sourcePoint" />
            <mxPoint x="114" y="-22" as="targetPoint" />
          </mxGeometry>
        </mxCell>
        <mxCell id="3z-ovZjEJ0D5grw7G7I1-24" value="Client Device&amp;nbsp;" style="verticalAlign=top;align=left;shape=cube;size=10;direction=south;fontStyle=0;html=1;boundedLbl=1;spacingLeft=5;whiteSpace=wrap;" vertex="1" parent="1">
          <mxGeometry x="-537" y="72" width="177" height="123" as="geometry" />
        </mxCell>
        <mxCell id="3z-ovZjEJ0D5grw7G7I1-25" value="Web UI + Result Display" style="rounded=0;whiteSpace=wrap;html=1;" vertex="1" parent="1">
          <mxGeometry x="-514" y="126" width="122" height="38" as="geometry" />
        </mxCell>
        <mxCell id="3z-ovZjEJ0D5grw7G7I1-26" value="" style="endArrow=classic;html=1;rounded=0;fontSize=12;startSize=8;endSize=8;curved=1;entryX=0.849;entryY=1.003;entryDx=0;entryDy=0;entryPerimeter=0;exitX=0.706;exitY=-0.005;exitDx=0;exitDy=0;exitPerimeter=0;" edge="1" parent="1" source="3z-ovZjEJ0D5grw7G7I1-24" target="3z-ovZjEJ0D5grw7G7I1-15">
          <mxGeometry width="50" height="50" relative="1" as="geometry">
            <mxPoint x="-170" y="271" as="sourcePoint" />
            <mxPoint x="-120" y="221" as="targetPoint" />
          </mxGeometry>
        </mxCell>
        <mxCell id="3z-ovZjEJ0D5grw7G7I1-27" value="HTTPS" style="text;html=1;align=center;verticalAlign=middle;whiteSpace=wrap;rounded=0;" vertex="1" parent="1">
          <mxGeometry x="-364" y="130" width="127" height="30" as="geometry" />
        </mxCell>
        <mxCell id="3z-ovZjEJ0D5grw7G7I1-29" value="" style="endArrow=none;html=1;rounded=0;fontSize=12;startSize=8;endSize=8;curved=1;" edge="1" parent="1">
          <mxGeometry width="50" height="50" relative="1" as="geometry">
            <mxPoint x="-90" y="16" as="sourcePoint" />
            <mxPoint x="11" y="17" as="targetPoint" />
          </mxGeometry>
        </mxCell>
        <mxCell id="3z-ovZjEJ0D5grw7G7I1-30" value="" style="endArrow=none;html=1;rounded=0;fontSize=12;startSize=8;endSize=8;curved=1;" edge="1" parent="1">
          <mxGeometry width="50" height="50" relative="1" as="geometry">
            <mxPoint x="11" y="67" as="sourcePoint" />
            <mxPoint x="11" y="17" as="targetPoint" />
          </mxGeometry>
        </mxCell>
        <mxCell id="3z-ovZjEJ0D5grw7G7I1-31" value="" style="endArrow=classic;html=1;rounded=0;fontSize=12;startSize=8;endSize=8;curved=1;entryX=0.41;entryY=1.002;entryDx=0;entryDy=0;entryPerimeter=0;" edge="1" parent="1" target="3z-ovZjEJ0D5grw7G7I1-15">
          <mxGeometry width="50" height="50" relative="1" as="geometry">
            <mxPoint x="11" y="67" as="sourcePoint" />
            <mxPoint x="61" y="17" as="targetPoint" />
          </mxGeometry>
        </mxCell>
        <mxCell id="3z-ovZjEJ0D5grw7G7I1-32" value="prediction" style="text;html=1;align=center;verticalAlign=middle;whiteSpace=wrap;rounded=0;" vertex="1" parent="1">
          <mxGeometry x="-94" y="-7" width="127" height="30" as="geometry" />
        </mxCell>
      </root>
    </mxGraphModel>
  </diagram>
</mxfile>
